<svg xmlns="http://www.w3.org/2000/svg" viewBox="0 0 512 512"><path fill="#FFFFFF" d="M384 64H128V32c0-17.7 14.3-32 32-32h192c17.7 0 32 14.3 32 32v32z"/><path fill="#E3F2FD" d="M384 128H128l-32 320c0 35.3 28.7 64 64 64h192c35.3 0 64-28.7 64-64l-32-320z"/><path fill="#90CAF9" d="M352 160H160c-8.8 0-16-7.2-16-16v-32h224v32c0 8.8-7.2 16-16 16z"/><path fill="#1976D2" d="M320 224H192c-8.8 0-16-7.2-16-16s7.2-16 16-16h128c8.8 0 16 7.2 16 16s-7.2 16-16 16z"/><path fill="#1976D2" d="M304 288H208c-8.8 0-16-7.2-16-16s7.2-16 16-16h96c8.8 0 16 7.2 16 16s-7.2 16-16 16z"/></svg>