<svg xmlns="http://www.w3.org/2000/svg" viewBox="0 0 512 512"><path fill="#FF9800" d="M328.2 128c-13.1-27.8-42.1-46.3-73.8-46.3-31.7 0-60.7 18.5-73.8 46.3C129.4 130.8 88 174.1 88 226.7c0 54.9 44.6 99.5 99.5 99.5h137c54.9 0 99.5-44.6 99.5-99.5 0-52.6-41.4-95.9-92.6-98.7z"/><path fill="#4CAF50" d="M328.2 128c-2.4-5.1-5.4-9.9-8.8-14.3 17.9 25.3 16.4 60.2-4.5 83.9-23.7 26.9-64.7 29.5-91.6 5.8-26.9-23.7-29.5-64.7-5.8-91.6 2.9-3.3 6.1-6.2 9.5-8.8-15.7-13.8-36.1-20.8-56.6-20.8-31.7 0-60.7 18.5-73.8 46.3C129.4 130.8 88 174.1 88 226.7c0 54.9 44.6 99.5 99.5 99.5h137c54.9 0 99.5-44.6 99.5-99.5 0-52.6-41.4-95.9-92.6-98.7z"/><circle fill="#8BC34A" cx="256" cy="226.7" r="49.8"/></svg>