<svg xmlns="http://www.w3.org/2000/svg" viewBox="0 0 512 512"><path fill="#4CAF50" d="M256 96c-88.4 0-160 71.6-160 160s71.6 160 160 160 160-71.6 160-160S344.4 96 256 96z"/><path fill="#2E7D32" d="M256 128c-70.7 0-128 57.3-128 128s57.3 128 128 128 128-57.3 128-128S326.7 128 256 128z"/><path fill="#81C784" d="M304 224c0 26.5-21.5 48-48 48s-48-21.5-48-48 21.5-48 48-48 48 21.5 48 48z"/><path fill="#C8E6C9" d="M280 224c0 13.3-10.7 24-24 24s-24-10.7-24-24 10.7-24 24-24 24 10.7 24 24z"/><path fill="#4CAF50" d="M368 192c-8.8 0-16-7.2-16-16s7.2-16 16-16 16 7.2 16 16-7.2 16-16 16z"/><path fill="#4CAF50" d="M144 288c-8.8 0-16-7.2-16-16s7.2-16 16-16 16 7.2 16 16-7.2 16-16 16z"/></svg>