<?xml version="1.0" encoding="UTF-8" standalone="no"?>
<svg xmlns="http://www.w3.org/2000/svg" viewBox="0 0 100 100">
  <path d="M30 30h40v40c0 10-40 10-40 0v-40z" fill="#795548"/>
  <path d="M35 35h30v30c0 8-30 8-30 0v-30z" fill="#5d4037"/>
  <path d="M70 40h10v20h-10c-5 0-5-20 0-20z" fill="#95a5a6"/>
  <ellipse cx="50" cy="35" rx="20" ry="5" fill="#8d6e63"/>
  <path d="M45 45c0 0 10-5 10 0s-10 5-10 0z" fill="#6d4c41"/>
  <path d="M45 55c0 0 10-5 10 0s-10 5-10 0z" fill="#6d4c41"/>
  <text x="50" y="50" font-family="Arial" font-size="8" text-anchor="middle" fill="#ffffff">COFFEE</text>
</svg>