<?xml version="1.0" encoding="UTF-8" standalone="no"?>
<svg xmlns="http://www.w3.org/2000/svg" viewBox="0 0 100 100">
  <path d="M30 30h40v40c0 10-40 10-40 0v-40z" fill="#27ae60"/>
  <path d="M35 35h30v30c0 8-30 8-30 0v-30z" fill="#2ecc71"/>
  <path d="M25 25h50v5h-50z" fill="#95a5a6"/>
  <path d="M45 45c0 0 10-5 10 0s-10 5-10 0z" fill="#229954"/>
  <path d="M45 55c0 0 10-5 10 0s-10 5-10 0z" fill="#229954"/>
  <path d="M70 40s5-10 0-15-15 0-15 0" fill="none" stroke="#95a5a6" stroke-width="2"/>
  <text x="50" y="50" font-family="Arial" font-size="8" text-anchor="middle" fill="#ffffff">GREEN TEA</text>
</svg>